<svg xmlns:xlink="http://www.w3.org/1999/xlink" xmlns="http://www.w3.org/2000/svg" style="width: 24px; height: 24px; fill: var(--color-icon-high-emphasis);" width="24"  height="24" ><defs><symbol id="cartOn" xmlns="http://www.w3.org/2000/svg" viewBox="0 0 24 24"><path fill-rule="evenodd" d="M22 4h-2v11a1 1 0 01-1 1H4a1 1 0 01-.995-.9l-1-10A1 1 0 013 4h15V3a1 1 0 011-1h3v2zm-6 15a2 2 0 104 0 2 2 0 00-4 0zM3 19a2 2 0 104 0 2 2 0 00-4 0z" clip-rule="evenodd"></path></symbol></defs><use xlink:href="#cartOn" fill="#A1A3A8"></use></svg>