<svg xmlns:xlink="http://www.w3.org/1999/xlink" xmlns="http://www.w3.org/2000/svg" style="width: 24px; height: 24px; fill: var(--color-icon-high-emphasis);" width="24"  height="24" ><defs><symbol id="categoryFill" xmlns="http://www.w3.org/2000/svg" viewBox="0 0 24 24"><path fill-rule="evenodd" d="M3 2a1 1 0 00-1 1v7a1 1 0 001 1h7a1 1 0 001-1V3a1 1 0 00-1-1H3zm11 11a1 1 0 00-1 1v7a1 1 0 001 1h7a1 1 0 001-1v-7a1 1 0 00-1-1h-7zm8-6.5a4.5 4.5 0 11-9 0 4.5 4.5 0 019 0zM6.5 22a4.5 4.5 0 100-9 4.5 4.5 0 000 9z" clip-rule="evenodd"></path></symbol></defs><use xlink:href="#categoryFill" fill="#A1A3A8"></use></svg>