<svg xmlns:xlink="http://www.w3.org/1999/xlink" xmlns="http://www.w3.org/2000/svg" style="width: 24px; height: 24px; fill: var(--color-icon-high-emphasis);" width="24"  height="24" ><defs><symbol id="addToHomeIos" xmlns="http://www.w3.org/2000/svg" viewBox="0 0 24 24"><g clip-path="url(#clip0_954_147323)"><path d="M6.219 20.998h11.846c1.022 0 1.788-.252 2.3-.757.51-.504.766-1.261.766-2.27V6.047c0-1.01-.256-1.766-.767-2.27-.51-.505-1.277-.757-2.3-.757H6.22c-1.022 0-1.789.252-2.3.756-.511.505-.767 1.262-.767 2.27v11.925c0 1.009.256 1.766.767 2.27.511.505 1.278.757 2.3.757zm.02-1.572c-.489 0-.863-.129-1.124-.386-.26-.257-.39-.64-.39-1.147V6.125c0-.508.13-.89.39-1.147.26-.258.635-.386 1.123-.386h11.807c.482 0 .854.128 1.118.386.264.257.396.64.396 1.147v11.768c0 .507-.132.89-.396 1.147s-.636.386-1.118.386H6.238zm1.386-7.432c0 .235.078.427.235.576a.84.84 0 00.605.225h2.871v2.88c0 .248.075.448.225.601.15.153.341.23.576.23a.812.812 0 00.6-.23.813.813 0 00.23-.6v-2.881h2.88a.822.822 0 00.601-.225.771.771 0 00.23-.576.812.812 0 00-.23-.6.813.813 0 00-.6-.23h-2.881V8.293c0-.254-.077-.457-.23-.61a.812.812 0 00-.6-.23.763.763 0 00-.576.234.84.84 0 00-.225.606v2.871H8.465c-.254 0-.457.077-.61.23a.812.812 0 00-.23.6z"></path></g><defs><clipPath id="clip0_954_147323"><path d="M0 0h17.979v17.998H0z" transform="translate(3.152 3)"></path></clipPath></defs></symbol></defs><use xlink:href="#addToHomeIos" fill="#424750"></use></svg>