<svg xmlns:xlink="http://www.w3.org/1999/xlink" xmlns="http://www.w3.org/2000/svg" style="width: 24px; height: 24px; fill: var(--color-icon-secondary);" width="24"  height="24" ><defs><symbol id="shareIconIos" xmlns="http://www.w3.org/2000/svg" viewBox="0 0 24 24"><g clip-path="url(#clip0_954_147320)"><path d="M16 5l-1.42 1.42-1.59-1.59V16h-1.98V4.83L9.42 6.42 8 5l4-4 4 4zm4 5v11c0 1.1-.9 2-2 2H6a2 2 0 01-2-2V10c0-1.11.89-2 2-2h3v2H6v11h12V10h-3V8h3a2 2 0 012 2z"></path></g><defs><clipPath id="clip0_954_147320"><path d="M0 0h24v24H0z"></path></clipPath></defs></symbol></defs><use xlink:href="#shareIconIos" fill="#19BFD3"></use></svg>