<svg xmlns:xlink="http://www.w3.org/1999/xlink" xmlns="http://www.w3.org/2000/svg" style="width: 24px; height: 24px; fill: var(--color-icon-high-emphasis);" width="25"  height="24" ><defs><symbol id="gridLayout" xmlns="http://www.w3.org/2000/svg" x="0" y="0" version="1.1" viewBox="0 0 25 24" xml:space="preserve"><style> .st0{fill:#424242} </style><path d="M10.3 11h-6c-.6 0-1-.4-1-1V5.6c0-.7 0-1.1.2-1.5.2-.4.5-.7.9-.9.5-.2.9-.2 1.5-.2h4.4c.6 0 1 .4 1 1v6c0 .6-.4 1-1 1zm-5-2h4V5h-4v4zM20.3 11h-6c-.6 0-1-.4-1-1V4c0-.6.4-1 1-1h4.4c.7 0 1.1 0 1.5.2.4.2.7.5.9.9.2.4.2.9.2 1.5V10c0 .6-.4 1-1 1zm-5-2h4V5.6 5h-4v4zM10.3 21H5.9c-.7 0-1.1 0-1.5-.2-.4-.2-.7-.5-.9-.9-.2-.4-.2-.9-.2-1.5V14c0-.6.4-1 1-1h6c.6 0 1 .4 1 1v6c0 .6-.4 1-1 1zm-5-6v4h4v-4h-4zM18.7 21h-4.4c-.6 0-1-.4-1-1v-6c0-.6.4-1 1-1h6c.6 0 1 .4 1 1v4.4c0 .7 0 1.1-.2 1.5-.2.4-.5.7-.9.9-.4.2-.8.2-1.5.2zm-3.4-2h4v-4h-4v4z" class="st0" fill="#424242"></path></symbol></defs><use xlink:href="#gridLayout" fill="#424750"></use></svg>